<svg width="24" height="24" viewBox="0 0 24 24" fill="none" xmlns="http://www.w3.org/2000/svg">
<path d="M15.51 2.83008H8.49C6 2.83008 5.45 4.07008 5.13 5.59008L4 11.0001H20L18.87 5.59008C18.55 4.07008 18 2.83008 15.51 2.83008Z" stroke="#777E91" stroke-width="1.5" stroke-linecap="round" stroke-linejoin="round"/>
<path d="M21.99 19.82C22.0132 20.0995 21.9777 20.3807 21.8859 20.6456C21.794 20.9106 21.6479 21.1534 21.4568 21.3586C21.2657 21.5638 21.0339 21.7269 20.7761 21.8373C20.5184 21.9478 20.2404 22.0032 19.96 22H18.08C17 22 16.85 21.54 16.66 20.97L16.46 20.37C16.18 19.55 16.001 19 14.56 19H9.44004C8.00004 19 7.79004 19.62 7.54004 20.37L7.34004 20.97C7.15004 21.54 7.00104 22 5.92004 22H4.04004C3.75965 22.0032 3.48168 21.9478 3.22393 21.8373C2.96619 21.7269 2.73435 21.5638 2.54326 21.3586C2.35216 21.1534 2.20603 20.9106 2.11421 20.6456C2.02239 20.3807 1.98691 20.0995 2.01004 19.82L2.57004 13.73C2.71004 12.23 3.00104 11 5.62004 11H18.38C21 11 21.29 12.23 21.43 13.73L21.99 19.82Z" stroke="#777E91" stroke-width="1.5" stroke-linecap="round" stroke-linejoin="round"/>
<path d="M4 8H3" stroke="#777E91" stroke-width="1.5" stroke-linecap="round" stroke-linejoin="round"/>
<path d="M21 8H20" stroke="#777E91" stroke-width="1.5" stroke-linecap="round" stroke-linejoin="round"/>
<path d="M12 3V5" stroke="#777E91" stroke-width="1.5" stroke-linecap="round" stroke-linejoin="round"/>
<path d="M10.5 5H13.5" stroke="#777E91" stroke-width="1.5" stroke-linecap="round" stroke-linejoin="round"/>
<path d="M6 15H9" stroke="#777E91" stroke-width="1.5" stroke-linecap="round" stroke-linejoin="round"/>
<path d="M15 15H18" stroke="#777E91" stroke-width="1.5" stroke-linecap="round" stroke-linejoin="round"/>
</svg>
